<svg height="24" width="24" xmlns="http://www.w3.org/2000/svg"><path d="M1.385 19.385c.521 0 .975.288 1.211.714l.694-.694c.348.384.747.72 1.188.995l.27.157-.593.593a1.5 1.5 0 11-2.052.804 1.385 1.385 0 11-.718-2.57zm21.23 0a1.385 1.385 0 11-.598 2.633 1.385 1.385 0 11-1.918-.614l-.847-.846c.458-.25.875-.564 1.243-.928l.215-.224.693.694c.236-.427.69-.715 1.212-.715zM12 2c5 0 9 4 9 9 0 1.415-.086 2.244-1 4 1 2-.692 4.426-4 4-1 1-.98 3-2 3h-4c-1.02 0-1-2-2-3-2.308.426-5-2-4-4-.585-1.194-1-2.585-1-4 0-5 4-9 9-9zm0 15c-.552 0-1 .448-1 1s2 .552 2 0-.448-1-1-1zm-3.5-6a2.5 2.5 0 100 5 2.5 2.5 0 000-5zm7.5 1a2 2 0 100 4 2 2 0 000-4zm4.923-12a1.385 1.385 0 011.272 1.93l-.057.114.118-.024a1.5 1.5 0 11-1.104 2.137l-.294.297a11.39 11.39 0 00-.898-1.059l-.328-.327.527-.529A1.383 1.383 0 0120.923 0zM3.231 0A1.385 1.385 0 013.9 2.597l.47.47c-.334.319-.648.66-.94 1.018l-.285.365-.55-.55-.011.023a1.385 1.385 0 01-1.052.685l-.147.007a1.385 1.385 0 11.601-2.631c-.2-.408-.185-.893.046-1.292A1.385 1.385 0 013.23 0z" fill="#fff"/></svg>